<?xml version="1.0" standalone="no"?>
<!DOCTYPE svg PUBLIC "-//W3C//DTD SVG 20010904//EN"
 "http://www.w3.org/TR/2001/REC-SVG-20010904/DTD/svg10.dtd">
<svg version="1.0" xmlns="http://www.w3.org/2000/svg"
 width="100%" height="100%" viewBox="0 0 1280.000000 1240.000000"
 preserveAspectRatio="xMidYMid meet">
<g transform="translate(0.000000,1240.000000) scale(0.100000,-0.100000)"
fill="#9083ab" stroke="none">
<path d="M4254 12376 c-88 -28 -154 -73 -195 -132 -27 -40 -35 -45 -58 -40
-70 16 -126 17 -207 6 -49 -7 -98 -16 -110 -20 -31 -12 -92 -136 -105 -216
-10 -58 -9 -82 4 -147 15 -71 32 -118 141 -379 63 -149 79 -232 72 -367 -3
-64 -8 -133 -12 -153 -5 -32 -2 -41 22 -64 16 -15 54 -38 84 -51 71 -32 107
-59 124 -92 14 -25 12 -31 -26 -91 -50 -78 -91 -189 -114 -306 -40 -206 -10
-625 52 -721 9 -15 41 -30 97 -47 80 -24 117 -48 117 -75 0 -7 -13 -29 -30
-49 -61 -77 -76 -235 -31 -336 17 -40 24 -45 81 -65 60 -20 100 -45 100 -62 0
-5 -13 -15 -29 -23 -71 -37 -119 -112 -185 -287 -19 -50 -39 -96 -44 -101 -10
-10 -77 5 -247 57 -60 18 -136 39 -167 45 -51 10 -64 18 -105 63 -166 182
-243 234 -409 277 -32 8 -45 17 -54 40 -19 47 -63 77 -120 85 -47 6 -54 11
-90 60 -121 164 -302 247 -545 248 -119 1 -121 0 -235 -44 -162 -62 -198 -61
-350 11 -108 51 -121 55 -202 58 -48 2 -110 -1 -139 -7 -164 -35 -305 -159
-414 -363 -28 -53 -41 -64 -146 -130 -195 -123 -345 -295 -341 -394 1 -18 15
-66 32 -105 16 -39 30 -88 30 -109 0 -33 -6 -44 -48 -79 -26 -23 -90 -60 -142
-82 -222 -97 -256 -125 -290 -240 -26 -85 -25 -107 4 -201 29 -95 72 -163 139
-224 100 -89 222 -134 369 -134 l88 0 0 33 c0 41 -17 96 -71 227 -47 115 -60
200 -39 250 16 40 96 110 125 110 27 0 117 -59 205 -134 87 -73 149 -103 245
-117 73 -11 83 -15 127 -57 97 -91 162 -212 283 -532 119 -315 179 -425 285
-524 95 -89 230 -131 397 -124 l78 3 3 -37 c2 -24 -5 -53 -22 -87 -39 -77 -35
-115 22 -202 69 -105 135 -174 307 -320 163 -138 283 -257 333 -331 18 -26 32
-49 32 -53 0 -3 -48 -56 -106 -117 -106 -111 -164 -201 -164 -255 0 -44 -20
-70 -84 -112 -107 -70 -142 -119 -155 -216 l-6 -50 -53 -7 c-140 -21 -201
-111 -247 -373 -10 -55 -23 -105 -29 -112 -6 -6 -39 -18 -73 -27 -74 -18 -126
-49 -172 -102 -49 -55 -61 -93 -61 -186 l0 -83 -56 -65 c-31 -36 -70 -94 -88
-130 -28 -59 -31 -76 -34 -181 l-4 -116 46 -52 c58 -65 66 -94 37 -129 -100
-124 -126 -206 -126 -402 0 -151 8 -199 50 -295 30 -69 45 -81 112 -90 65 -8
116 -26 129 -46 4 -8 9 -72 10 -144 4 -214 25 -272 251 -691 119 -219 153
-272 203 -318 60 -54 97 -69 183 -74 67 -4 80 -8 93 -27 8 -12 30 -84 49 -160
20 -79 48 -161 64 -189 l28 -51 139 -3 c163 -3 318 10 392 34 59 19 134 79
159 128 72 139 46 309 -56 369 l-31 18 -19 -43 c-58 -133 -214 -184 -350 -113
-89 47 -116 83 -126 170 -4 33 -26 163 -51 288 -47 243 -65 419 -55 532 8 97
39 137 192 255 175 135 195 166 219 325 13 92 27 139 48 165 17 21 20 21 80 9
194 -40 336 96 319 307 -4 39 -9 78 -13 87 -9 25 31 44 193 86 155 41 230 70
256 99 9 9 30 46 49 81 44 86 91 123 163 129 74 6 115 -6 308 -88 206 -88 290
-110 416 -110 178 0 256 34 423 187 100 92 102 93 152 93 65 1 122 14 218 50
77 30 151 39 163 20 3 -5 1 -28 -5 -51 -88 -325 -52 -703 93 -994 85 -171 229
-336 366 -420 l64 -38 76 26 c142 51 153 42 207 -158 32 -117 61 -161 116
-175 54 -15 93 -7 147 32 26 18 60 33 86 36 l43 4 38 -73 c47 -88 128 -179
208 -231 67 -43 188 -85 274 -94 85 -10 88 -13 95 -93 9 -111 15 -118 156
-187 68 -34 132 -72 143 -85 75 -93 80 -189 19 -428 -33 -135 -41 -182 -41
-258 0 -107 11 -141 71 -221 22 -29 54 -83 70 -120 51 -115 80 -170 98 -186
18 -16 193 -56 247 -56 43 0 172 29 209 48 70 34 105 86 105 156 0 35 -7 54
-34 89 -67 87 -67 108 -4 122 139 31 356 196 484 368 201 270 270 554 200 817
-40 152 -43 223 -16 366 41 210 26 304 -76 474 -77 130 -124 229 -124 262 0
16 11 45 24 66 48 76 87 164 112 253 22 77 26 105 22 187 -3 84 -8 104 -33
151 -16 29 -47 68 -68 87 l-39 33 23 48 c32 65 32 213 0 365 -12 60 -20 112
-17 117 3 4 21 11 39 14 19 3 68 28 109 56 81 55 104 84 219 271 36 60 96 139
139 184 167 175 464 361 673 421 99 28 167 23 291 -25 201 -76 238 -70 359 61
45 50 97 99 115 111 34 21 34 21 60 1 28 -20 38 -35 102 -143 44 -76 83 -103
146 -103 34 0 54 7 87 31 71 54 128 85 137 76 4 -5 20 -45 35 -89 59 -178 171
-288 365 -356 l75 -26 51 -124 c61 -150 74 -199 74 -282 0 -79 -23 -119 -97
-163 -53 -31 -162 -70 -228 -81 -33 -5 -41 -2 -85 42 -77 75 -77 134 -1 155
73 19 80 69 13 91 -40 14 -159 14 -207 1 -37 -10 -68 -68 -86 -160 -46 -242
115 -417 416 -453 113 -14 234 4 333 51 98 46 102 51 102 131 l0 68 44 30
c130 90 205 238 255 507 16 85 14 143 -9 267 -29 158 -34 174 -96 276 -71 117
-89 169 -114 328 -39 241 -74 332 -231 599 -116 199 -149 271 -149 326 0 24
-7 73 -15 111 -36 172 -157 297 -332 342 -74 19 -233 19 -307 0 -32 -8 -63
-12 -69 -8 -7 4 -50 35 -96 70 -167 128 -260 159 -444 150 l-120 -5 -166 166
c-171 172 -234 219 -337 254 -90 30 -158 33 -257 9 -188 -45 -215 -42 -402 47
l-120 57 -100 0 c-94 -1 -109 -4 -251 -53 -202 -70 -217 -69 -183 7 30 69 75
222 114 396 67 292 117 415 170 415 7 0 35 20 63 45 92 83 123 212 104 440
l-10 130 30 40 c135 184 151 408 63 880 -60 316 -79 478 -59 498 15 15 48 -19
74 -78 35 -78 54 -89 137 -82 282 22 610 487 543 768 -17 71 -84 140 -153 158
-79 19 -146 -1 -291 -88 -45 -27 -91 -52 -103 -55 -14 -4 -56 4 -110 22 -190
64 -450 80 -596 36 -50 -15 -61 -15 -83 -3 -40 21 -102 115 -125 188 -19 63
-23 142 -16 325 2 36 -2 43 -41 73 -58 44 -109 56 -217 50 -107 -5 -195 -33
-367 -114 l-120 -57 -34 -68 c-66 -131 -124 -174 -351 -254 -153 -54 -199 -80
-277 -153 -83 -80 -162 -204 -269 -424 -121 -248 -133 -267 -200 -305 -30 -17
-104 -79 -163 -137 -114 -111 -187 -169 -206 -163 -11 4 -91 182 -164 365 -56
141 -81 247 -95 398 -11 112 -14 122 -40 147 -17 17 -57 35 -101 48 -149 43
-134 29 -182 170 -24 69 -72 193 -108 275 -36 83 -88 214 -117 292 -29 78 -67
166 -84 195 -40 66 -107 113 -185 128 -31 7 -64 15 -72 19 -14 8 -64 79 -155
223 -103 165 -206 226 -346 208 l-54 -7 -56 52 c-67 64 -149 107 -257 134
-100 26 -138 25 -228 -3z m232 -74 c23 -11 84 -50 137 -86 104 -71 160 -88
264 -84 55 2 64 -1 111 -36 30 -21 82 -79 124 -134 136 -184 152 -204 196
-242 43 -38 133 -80 172 -80 48 0 97 -94 160 -306 51 -171 80 -232 135 -290
40 -43 43 -49 48 -122 4 -42 20 -120 35 -172 l29 -95 74 -17 c149 -36 190 -51
208 -77 13 -21 16 -54 16 -191 1 -196 6 -216 101 -381 83 -143 114 -223 114
-292 0 -61 -20 -107 -94 -226 -30 -47 -62 -111 -70 -141 -27 -94 -36 -235 -29
-465 6 -223 -2 -334 -32 -437 -19 -65 -33 -89 -53 -86 -13 3 -19 -16 -34 -112
-29 -190 -50 -288 -64 -307 -13 -17 -15 -17 -34 6 -22 25 -27 83 -11 125 8 20
3 39 -28 103 -101 209 -226 556 -331 920 -28 95 -120 446 -204 780 -170 668
-211 810 -293 1018 -78 197 -235 507 -249 492 -2 -2 8 -30 22 -63 129 -289
253 -678 450 -1404 140 -516 218 -790 283 -992 42 -129 327 -962 375 -1095 29
-80 -21 -126 -93 -87 -51 27 -69 72 -80 194 -11 126 -31 185 -181 542 -137
322 -172 427 -216 630 -19 90 -66 276 -104 413 -38 138 -103 383 -145 545
-209 807 -332 1164 -517 1505 -103 189 -160 268 -220 308 -29 20 -81 65 -116
102 -62 64 -138 123 -147 113 -12 -11 69 -112 203 -251 178 -187 229 -255 292
-382 47 -95 190 -505 264 -753 43 -144 124 -447 206 -772 85 -335 168 -622
316 -1094 69 -221 128 -409 131 -420 3 -12 1 -17 -8 -14 -23 6 -142 255 -208
432 -34 91 -113 338 -176 548 -123 410 -176 569 -183 549 -8 -25 21 -151 68
-291 27 -80 70 -237 95 -350 58 -255 82 -330 152 -484 121 -268 155 -353 234
-596 59 -182 79 -258 72 -269 -16 -27 -113 -71 -157 -71 -89 0 -145 41 -349
258 -90 96 -167 148 -357 243 -177 89 -287 125 -422 138 -125 12 -169 28 -220
79 -70 67 -48 130 91 263 69 67 91 95 96 122 11 57 -1 76 -63 104 -32 13 -72
31 -90 39 -44 19 -66 71 -58 137 4 34 19 70 51 120 25 39 45 80 45 91 0 11
-10 40 -21 64 -25 51 -86 95 -166 118 -28 8 -56 20 -61 27 -5 7 -16 41 -25 77
-46 189 -47 397 -2 539 14 44 53 139 86 212 76 166 89 220 64 272 -15 33 -31
44 -111 83 -62 29 -100 54 -115 75 -21 30 -22 34 -10 138 15 144 14 248 -4
307 -16 52 -35 91 -133 274 -70 132 -97 220 -87 289 7 57 55 159 89 191 34 31
105 37 224 16 156 -27 158 -26 227 92 52 90 79 104 185 99 62 -2 96 -9 126
-25z m4109 -990 c81 -34 79 -29 67 -118 -13 -92 -1 -205 27 -270 26 -57 79
-114 129 -136 23 -10 42 -21 42 -24 0 -3 -54 -63 -119 -132 -270 -287 -492
-608 -742 -1072 -180 -336 -327 -704 -448 -1127 -32 -112 -41 -157 -39 -210 2
-77 -11 -110 -48 -119 -34 -9 -45 5 -55 68 -12 73 4 163 58 332 33 103 47 163
50 221 5 91 8 98 155 409 291 613 572 1074 860 1413 43 51 78 95 78 98 0 3 -7
5 -15 5 -9 0 -46 -33 -83 -72 -37 -40 -97 -102 -133 -138 -69 -68 -95 -107
-417 -640 -352 -585 -508 -972 -604 -1505 l-13 -70 -52 -25 c-28 -14 -63 -36
-77 -49 -31 -29 -76 -116 -76 -147 0 -23 51 -74 75 -74 7 0 22 -8 34 -17 20
-18 21 -22 12 -188 -10 -183 -19 -225 -59 -267 -50 -54 -52 -52 -240 228 -175
262 -285 357 -452 394 -97 21 -90 15 -90 83 0 45 7 78 25 117 22 48 22 52 5
31 -26 -30 -60 -161 -96 -369 -9 -46 22 -76 105 -103 138 -45 163 -68 94 -89
-21 -7 -121 -14 -223 -17 -237 -6 -225 -13 -224 134 1 130 14 186 94 410 99
279 103 297 99 518 -2 105 -4 253 -4 330 l1 141 36 47 c20 26 53 91 74 145 62
161 82 183 339 372 77 57 173 136 213 176 67 68 79 88 163 261 103 213 152
285 274 402 105 101 200 164 380 251 130 64 145 74 204 141 204 227 438 323
616 251z m893 -611 c85 -21 92 -25 92 -47 0 -13 -42 -106 -94 -207 -106 -205
-126 -267 -126 -393 0 -115 15 -197 89 -485 111 -435 108 -508 -32 -844 -59
-140 -75 -236 -60 -343 7 -42 15 -85 18 -94 5 -13 -22 -48 -112 -140 -159
-165 -178 -206 -243 -537 -40 -198 -76 -308 -160 -479 -104 -214 -223 -399
-399 -622 -112 -142 -412 -489 -465 -538 -59 -54 -158 -119 -196 -127 -30 -7
-83 14 -97 39 -14 23 -53 38 -84 31 -16 -4 -49 -23 -73 -43 -24 -21 -51 -41
-60 -47 -16 -9 -15 -16 14 -78 18 -37 29 -74 26 -82 -4 -12 -24 -15 -83 -15
-44 0 -115 -9 -163 -21 -99 -24 -219 -34 -239 -21 -11 8 -5 28 32 108 205 450
352 902 457 1408 16 82 33 152 36 157 12 19 35 7 51 -26 15 -32 16 -44 3 -128
-16 -101 -17 -164 -3 -178 14 -14 107 19 149 54 51 42 74 97 74 178 0 80 -21
167 -95 380 -64 186 -74 254 -56 380 16 110 56 308 87 434 141 565 463 1253
876 1867 32 48 58 90 58 93 0 3 -13 -1 -28 -9 -44 -23 -98 -89 -138 -168 -20
-40 -96 -172 -169 -293 -215 -357 -340 -599 -452 -875 -115 -284 -201 -584
-243 -850 -29 -183 -29 -180 -43 -180 -42 0 -96 84 -97 151 0 44 31 164 65
249 15 36 48 151 75 256 102 402 225 668 615 1329 77 132 165 285 195 340 110
203 316 365 540 425 104 28 324 24 458 -9z m510 -80 c22 -16 43 -34 47 -40 10
-18 32 -12 38 9 14 54 47 -1 47 -78 -1 -66 -23 -108 -132 -254 -53 -70 -104
-147 -113 -173 -19 -49 -24 -51 -110 -58 -27 -2 -67 -11 -87 -21 -58 -28 -88
-2 -123 104 -23 70 -42 99 -73 111 -33 13 -23 30 31 56 47 23 59 47 36 70 -6
6 -8 16 -5 22 11 17 34 13 46 -9 11 -21 40 -28 40 -10 0 6 -9 28 -20 50 -37
73 -15 110 39 65 26 -22 71 -34 71 -19 0 3 -9 17 -20 31 -33 43 -6 57 49 26
29 -17 31 -17 50 4 11 11 26 23 32 25 10 3 10 11 0 37 -18 42 -3 60 30 37 34
-23 46 -20 53 14 7 38 22 38 74 1z m-8387 -1257 c7 -8 60 -38 117 -66 l105
-50 66 31 c107 49 189 64 341 64 105 -1 153 -5 214 -22 156 -41 269 -111 327
-201 29 -45 46 -57 183 -131 195 -104 410 -248 513 -344 l82 -76 205 -29 c584
-85 918 -189 1200 -374 137 -90 293 -250 351 -359 l20 -38 -33 -30 c-18 -16
-43 -29 -56 -29 -18 0 -25 -7 -30 -31 -8 -43 -45 -37 -68 11 l-18 35 0 -72 c0
-113 -26 -157 -54 -91 l-14 31 -7 -54 c-4 -30 -22 -122 -40 -206 -42 -188 -51
-278 -35 -363 17 -96 29 -110 93 -110 99 0 122 37 138 221 5 68 12 126 15 131
10 15 41 8 61 -14 12 -13 30 -46 40 -74 36 -93 126 -212 398 -524 196 -225
280 -328 355 -440 69 -104 140 -232 140 -254 0 -22 -44 -31 -88 -17 -21 6 -48
12 -62 13 -20 2 -26 10 -30 35 -5 30 -13 36 -105 81 -98 48 -157 82 -445 257
-201 122 -375 208 -510 252 -63 20 -117 41 -120 45 -3 4 -2 36 2 70 4 35 10
109 14 165 7 99 6 102 -18 126 -29 29 -84 43 -125 32 -44 -11 -99 -74 -117
-135 -9 -29 -16 -61 -16 -70 0 -9 -6 -25 -14 -35 -13 -18 -17 -17 -107 14
-292 100 -544 265 -902 592 -278 253 -421 380 -441 391 -16 9 -16 6 4 -23 45
-65 276 -286 481 -461 113 -97 241 -210 285 -250 62 -59 94 -80 149 -102 77
-29 93 -39 118 -76 23 -33 21 -48 -6 -61 -35 -16 -93 4 -152 51 -95 77 -150
116 -255 182 -117 75 -158 112 -342 309 -84 90 -168 168 -246 227 -66 50 -147
121 -180 157 -42 46 -90 84 -154 122 -51 30 -183 117 -294 193 -330 227 -441
298 -589 370 -413 202 -749 221 -1231 69 -132 -42 -137 -43 -150 -24 -24 33
-36 87 -41 195 l-5 106 54 49 c30 28 99 74 153 104 176 98 208 131 279 293 77
173 180 226 447 227 113 1 139 -2 150 -15z m-146 -909 c472 -98 1204 -547
1712 -1050 90 -90 163 -152 201 -173 33 -19 108 -79 168 -134 110 -100 197
-169 337 -265 77 -53 135 -121 139 -165 8 -71 -154 31 -446 281 -48 40 -89 71
-92 69 -5 -5 82 -86 345 -322 126 -114 132 -121 126 -150 -75 -367 -25 -540
155 -539 32 0 77 9 108 22 29 11 62 21 72 21 11 0 97 -67 192 -148 634 -543
939 -760 1298 -924 58 -26 105 -53 105 -60 0 -7 -17 -19 -38 -27 -35 -13 -43
-12 -117 13 -144 49 -348 58 -690 31 -450 -35 -556 -39 -698 -26 -159 14 -288
40 -364 73 -29 12 -100 58 -158 101 -133 100 -166 117 -377 188 -214 72 -241
86 -295 149 -28 32 -55 54 -78 60 -29 8 -41 22 -74 79 -58 104 -139 186 -351
356 -198 158 -290 252 -327 333 -21 48 -23 39 26 170 12 32 14 52 7 83 -24
106 -130 144 -286 102 -63 -17 -64 -17 -115 7 -61 28 -137 107 -210 215 -30
44 -77 103 -105 130 l-51 50 -13 100 c-20 150 -56 279 -108 385 -38 77 -63
110 -128 175 -92 93 -159 132 -290 170 -64 18 -94 32 -104 48 -43 65 -118 119
-275 198 -89 44 -165 84 -170 89 -13 13 33 67 99 117 111 85 291 158 451 183
86 13 326 5 419 -15z m4190 -158 c32 -56 45 -137 22 -137 -23 0 -43 35 -61
104 -23 88 -4 105 39 33z m1716 -240 c219 -181 370 -529 369 -847 -1 -85 -12
-165 -24 -178 -4 -3 -14 -2 -23 4 -33 21 -37 39 -24 110 16 88 -2 205 -60 379
-74 222 -188 389 -331 487 -62 42 -67 51 -41 80 28 31 64 22 134 -35z m-7101
0 c-1 -7 -7 -23 -15 -37 -18 -32 -19 -41 -1 -34 8 3 19 -3 25 -15 9 -17 7 -30
-14 -70 -32 -64 -32 -82 4 -132 17 -22 31 -45 33 -51 2 -6 21 -13 42 -17 34
-6 39 -10 55 -57 9 -28 33 -71 54 -96 45 -55 47 -74 6 -83 -149 -33 -353 170
-367 365 -2 36 1 84 7 108 21 74 115 162 153 141 10 -5 18 -15 18 -22z m5486
-38 c33 -67 54 -165 54 -261 0 -105 -21 -114 -60 -26 -16 37 -49 252 -50 326
0 30 32 8 56 -39z m765 -23 c36 -13 86 -37 110 -53 43 -30 242 -210 246 -222
1 -3 9 -31 17 -62 9 -33 42 -96 81 -155 36 -54 72 -122 81 -151 17 -59 15
-144 -3 -150 -17 -6 -66 66 -151 225 -119 220 -211 349 -304 423 -42 33 -57
39 -98 39 -74 0 -97 12 -102 54 -9 80 14 91 123 52z m-6063 -15 c7 -43 -89
-211 -120 -211 -17 0 -3 71 26 132 47 100 86 133 94 79z m6934 -151 c14 -11
35 -47 48 -82 13 -35 27 -67 32 -72 26 -30 -19 -85 -91 -111 -76 -27 -73 -31
-69 118 4 166 20 195 80 147z m-1743 -9 c26 -17 -48 -77 -164 -134 -168 -83
-207 -134 -307 -406 -53 -145 -52 -140 -32 -297 5 -39 3 -52 -8 -56 -24 -10
-77 19 -98 54 -56 92 10 401 121 567 54 82 168 184 245 222 97 48 209 71 243
50z m848 -147 c112 -17 242 -57 269 -83 19 -17 41 -97 30 -108 -2 -2 -41 7
-86 21 -126 40 -247 56 -425 56 -209 -1 -359 -25 -420 -68 -59 -41 -78 -46
-104 -25 -20 16 -21 22 -11 48 57 150 372 218 747 159z m-770 -28 c-8 -53 -35
-102 -61 -114 -28 -12 -33 -9 -52 37 -31 73 -5 111 75 111 l44 0 -6 -34z
m-190 -64 c6 -4 37 -58 68 -121 60 -119 87 -151 232 -278 98 -86 142 -178 223
-463 33 -118 59 -221 58 -229 -4 -18 -398 397 -500 526 -93 116 -133 183 -165
274 -42 123 -43 220 -2 273 20 26 60 34 86 18z m1980 -58 c2 -6 -23 -30 -56
-53 -99 -69 -296 -181 -300 -170 -9 28 116 167 180 200 70 35 168 48 176 23z
m-1215 -61 c10 -12 26 -94 48 -248 35 -256 83 -526 136 -775 83 -389 126 -527
203 -655 23 -37 38 -71 35 -77 -10 -15 -65 0 -92 24 -39 38 -58 77 -112 233
-29 82 -58 161 -65 175 -7 14 -16 57 -20 95 -12 122 -43 314 -85 520 -22 110
-49 254 -60 320 -23 140 -42 367 -34 390 8 20 27 19 46 -2z m228 6 c46 -5 90
-15 97 -21 7 -6 13 -25 13 -44 0 -40 -125 -543 -139 -557 -21 -21 -70 128 -92
281 -12 84 -8 302 6 335 8 20 7 20 115 6z m-514 -24 c24 -24 25 -30 22 -127
-5 -155 -31 -140 -67 38 -13 60 -15 93 -9 102 15 18 26 15 54 -13z m159 -103
c4 -26 36 -184 70 -352 72 -344 102 -525 114 -685 6 -81 14 -121 29 -149 16
-29 19 -43 11 -53 -17 -19 -45 1 -79 54 -38 60 -62 133 -115 355 -25 105 -58
218 -79 265 -33 74 -36 89 -36 175 0 51 9 163 21 248 32 244 29 228 44 207 7
-10 16 -39 20 -65z m1356 68 c28 -16 24 -59 -12 -116 -29 -44 -32 -56 -30
-123 1 -70 -2 -79 -38 -140 -43 -74 -45 -78 -107 -385 -55 -271 -93 -407 -144
-511 -39 -81 -93 -155 -112 -155 -13 0 -14 -1 75 305 79 275 181 672 242 945
21 91 42 171 47 178 13 15 52 16 79 2z m-1637 -31 c24 -19 26 -27 26 -89 0
-38 -4 -71 -9 -74 -15 -10 -60 12 -86 40 -33 36 -33 86 0 119 29 30 35 31 69
4z m-488 -106 c111 -184 262 -387 568 -758 287 -348 364 -452 579 -784 36 -55
55 -72 132 -118 106 -64 128 -84 150 -130 29 -61 13 -66 -59 -19 -35 24 -87
50 -116 57 l-51 13 -197 266 c-413 558 -500 672 -949 1247 -65 84 -107 160
-129 240 -16 59 -14 100 5 88 6 -3 36 -49 67 -102z m1507 7 c49 -97 37 -185
-57 -427 -92 -235 -97 -262 -126 -599 -10 -127 -24 -244 -30 -260 -11 -27 -12
-28 -22 -10 -16 28 -3 592 16 735 22 163 43 273 72 376 31 107 93 247 108 242
6 -1 23 -27 39 -57z m-183 31 c18 -35 11 -120 -24 -259 -39 -158 -47 -205 -76
-437 -23 -184 -27 -205 -40 -205 -21 0 -34 90 -33 220 2 155 31 331 87 527 54
184 62 198 86 154z m608 -7 c5 -10 2 -54 -9 -117 -44 -256 -82 -384 -139 -477
-16 -25 -33 -72 -39 -105 -6 -33 -23 -103 -37 -155 -14 -52 -43 -158 -63 -236
-48 -177 -103 -286 -132 -257 -17 17 16 179 67 325 109 316 125 371 164 590
50 272 81 377 128 431 19 21 48 22 60 1z m2218 -117 c55 -19 139 -49 188 -67
96 -34 111 -35 216 -5 71 20 192 19 261 -1 131 -39 219 -101 429 -299 126
-118 148 -136 170 -130 14 3 63 8 110 11 145 11 248 -27 433 -157 54 -38 103
-69 110 -69 7 0 41 9 75 20 161 51 320 7 463 -127 114 -107 119 -119 122 -264
2 -116 4 -128 33 -189 17 -36 73 -121 124 -190 140 -189 157 -233 194 -510 18
-130 42 -207 144 -460 97 -239 107 -279 106 -425 0 -106 -4 -130 -30 -205 -32
-95 -47 -104 -78 -50 -19 31 -21 49 -18 168 3 146 -1 166 -57 322 -21 58 -44
131 -51 164 -19 92 -112 235 -307 475 l-118 144 -140 48 c-77 27 -194 76 -261
108 -102 51 -127 68 -168 116 -53 62 -76 76 -227 135 -57 23 -147 65 -199 95
-137 76 -203 101 -342 129 -206 42 -329 56 -474 56 -160 0 -238 -11 -345 -46
-80 -26 -104 -25 -112 7 -3 11 -14 19 -26 19 -34 0 -201 -57 -471 -160 -290
-111 -443 -161 -580 -191 -125 -27 -369 -36 -502 -19 -97 13 -98 13 -160 -13
-95 -40 -148 -36 -173 14 -26 48 -19 76 30 126 35 36 45 52 45 79 0 38 -1 38
35 24 24 -9 30 -5 73 41 26 28 76 74 111 102 61 49 63 51 57 88 -6 37 -4 39
42 70 27 17 66 57 88 88 21 31 64 81 95 112 31 30 60 66 64 80 18 57 87 181
146 259 82 110 165 242 179 285 9 29 27 42 128 98 64 36 136 74 160 86 120 60
249 63 408 8z m-2539 -253 c-55 -183 -110 -421 -134 -574 -27 -174 -25 -476 4
-590 24 -96 53 -168 85 -213 l22 -30 -17 -116 c-43 -296 3 -415 160 -413 91 1
170 48 368 218 127 110 205 157 205 123 0 -21 -236 -245 -309 -293 -176 -117
-335 -142 -493 -79 -70 28 -86 110 -48 253 23 89 25 110 7 110 -21 0 -55 -41
-100 -121 -40 -70 -46 -76 -122 -116 -44 -24 -120 -56 -170 -72 -380 -124
-739 -23 -1244 349 -58 42 -140 99 -181 125 -166 105 -179 115 -225 189 -54
86 -81 112 -213 205 -60 42 -113 88 -128 111 -43 65 -7 82 63 30 23 -17 43
-26 45 -20 9 29 213 -148 420 -365 l133 -140 170 -90 c93 -50 249 -136 345
-190 l175 -99 62 2 c47 3 85 -4 150 -25 104 -32 211 -36 313 -10 83 21 281
120 326 162 30 28 34 38 34 82 0 27 5 54 12 61 7 7 44 12 96 12 l85 0 -7 47
c-3 26 -27 93 -52 148 -90 195 -89 188 -89 395 1 142 6 220 23 335 51 333 95
511 153 628 35 68 98 142 111 129 5 -5 -9 -71 -35 -158z m-2257 -59 c9 -11 11
-39 6 -103 -7 -79 -5 -90 13 -111 21 -24 20 -32 -7 -64 -14 -16 -14 -23 1 -70
9 -28 25 -100 36 -159 27 -141 43 -178 119 -272 82 -101 102 -134 102 -168 0
-36 -20 -36 -90 -1 -121 60 -222 206 -271 388 -35 133 -37 471 -3 560 8 20 78
20 94 0z m-359 -147 c58 -19 120 -68 136 -106 12 -29 13 -49 4 -114 -13 -98
-22 -114 -64 -122 -56 -10 -111 -61 -187 -171 -82 -119 -106 -140 -116 -100
-9 36 4 93 31 140 13 22 80 94 149 159 70 65 131 126 136 136 14 25 3 48 -31
65 -56 29 -89 11 -89 -49 0 -19 -13 -35 -53 -65 -74 -54 -145 -136 -176 -201
-22 -46 -26 -69 -26 -142 0 -49 -4 -88 -9 -88 -19 0 -72 43 -97 79 -56 78 -64
173 -25 283 72 203 273 346 417 296z m2647 -20 c17 -17 15 -40 -10 -116 -12
-37 -23 -73 -25 -81 -3 -11 -6 -11 -18 -1 -17 14 -19 52 -5 112 5 24 12 55 15
71 6 29 23 35 43 15z m-1933 -292 c249 -105 433 -218 820 -505 262 -195 482
-342 603 -404 50 -26 92 -54 92 -61 0 -35 -93 -35 -164 0 -53 26 -79 46 -232
174 -49 41 -134 102 -189 134 -172 101 -248 153 -300 206 -33 34 -81 67 -138
96 -49 25 -166 88 -260 141 -196 109 -285 151 -398 189 -44 14 -82 31 -86 37
-3 6 5 19 18 30 35 28 102 18 234 -37z m-507 -59 c2 -28 -1 -37 -12 -37 -18 0
-30 33 -21 61 10 31 30 17 33 -24z m-71 -76 c27 -20 52 -52 79 -104 21 -42 36
-79 32 -82 -28 -28 -208 147 -208 202 0 23 56 14 97 -16z m598 -37 c28 -9 95
-39 150 -68 253 -133 797 -506 774 -530 -17 -18 -183 75 -474 264 -257 167
-384 244 -494 300 -61 30 -80 44 -70 51 15 9 37 6 114 -17z m-16 -106 c326
-190 1022 -631 1012 -641 -15 -15 -133 25 -251 85 -58 30 -206 121 -329 203
-222 147 -395 245 -500 281 -33 12 -56 27 -61 39 -5 11 -20 35 -34 54 -30 41
-36 87 -9 77 9 -4 86 -48 172 -98z m-378 -110 c21 -12 109 -97 195 -190 186
-201 207 -219 366 -317 123 -77 158 -110 102 -97 -55 13 -175 78 -254 137 -84
63 -470 454 -470 476 0 19 17 16 61 -9z m5017 -65 c-4 -21 -66 -58 -133 -77
-111 -33 -64 37 50 74 75 24 87 24 83 3z m526 9 c2 -4 0 -28 -6 -53 -13 -58
-5 -95 24 -102 50 -13 75 34 42 81 -8 12 -13 26 -9 31 12 20 121 33 220 28
116 -7 205 -30 336 -88 98 -43 415 -215 425 -230 3 -5 -3 -34 -12 -64 -21 -65
-15 -75 43 -78 30 -1 48 5 72 26 l32 26 47 -18 c26 -11 108 -51 183 -89 95
-49 162 -76 224 -90 64 -15 96 -29 118 -49 42 -40 174 -201 316 -387 l121
-158 0 -98 c0 -66 10 -151 31 -266 33 -179 44 -371 22 -408 -10 -19 -11 -19
-20 0 -6 10 -16 64 -22 119 -26 212 -65 365 -92 365 -13 0 -11 -39 5 -85 16
-46 11 -72 -10 -54 -8 6 -33 47 -56 91 -78 146 -143 198 -249 198 -101 0 -140
44 -205 234 -28 81 -46 118 -73 147 -68 70 -124 65 -176 -16 -43 -67 -65 -81
-102 -63 -44 21 -64 69 -84 203 -10 69 -26 136 -34 149 -45 68 -166 54 -230
-27 -15 -18 -48 -82 -73 -142 -26 -59 -54 -111 -62 -116 -8 -4 -47 -14 -86
-24 -69 -16 -71 -16 -116 6 -52 25 -63 43 -84 143 -22 105 -60 153 -164 206
-63 33 -192 40 -257 15 -84 -32 -148 -108 -168 -199 -6 -27 -8 -28 -48 -22
-116 16 -199 18 -245 5 -51 -14 -67 -29 -297 -272 -140 -148 -175 -206 -182
-301 -5 -59 -2 -73 31 -150 20 -46 36 -97 36 -113 -1 -72 -74 -162 -147 -182
-78 -22 -100 -12 -114 49 -5 24 -37 96 -69 161 -46 91 -59 127 -57 156 2 33
-1 38 -20 41 -29 4 -30 26 -2 45 20 14 20 16 4 40 -8 13 -24 54 -35 90 -23 83
-43 117 -85 144 -26 17 -34 30 -39 68 -10 62 -62 160 -145 271 -115 152 -147
235 -93 242 32 5 60 -23 88 -85 19 -44 27 -53 48 -53 30 0 34 19 10 55 -19 29
-15 69 7 73 9 2 32 -11 50 -28 48 -44 102 -70 161 -77 l51 -6 -7 33 c-9 47
-33 70 -73 70 -76 0 -44 70 43 96 30 8 61 13 68 11 7 -3 18 -25 24 -50 14 -54
31 -70 67 -61 39 10 42 31 10 89 -31 58 -28 75 15 75 24 0 35 -8 55 -41 20
-30 32 -39 48 -37 32 4 33 46 1 82 l-26 30 -83 -12 c-49 -7 -162 -39 -276 -79
-181 -62 -201 -67 -299 -71 -158 -6 -220 27 -80 44 208 24 448 99 840 264 289
122 449 179 589 210 146 32 295 48 305 32z m-5033 -68 c192 -139 482 -314 788
-477 77 -41 88 -57 40 -57 -94 0 -243 71 -454 214 -82 57 -197 129 -255 160
-132 74 -167 100 -202 155 -29 46 -35 71 -18 71 5 0 51 -30 101 -66z m1809
-30 c15 -39 -40 -144 -76 -144 -15 0 -44 27 -44 41 0 5 15 26 34 46 18 21 39
48 45 61 14 27 31 25 41 -4z m-756 -34 c60 -53 99 -160 58 -160 -28 0 -57 25
-91 78 -17 27 -43 54 -57 61 -26 11 -26 12 -9 31 26 28 59 25 99 -10z m-1101
-37 c45 -25 172 -103 282 -171 404 -254 560 -333 805 -408 57 -17 106 -36 108
-42 5 -15 -56 -33 -135 -39 -221 -18 -504 101 -704 294 -56 54 -98 84 -158
113 -138 67 -215 129 -272 218 -29 47 -37 82 -19 82 6 0 48 -21 93 -47z m2492
-36 c161 -164 263 -422 266 -672 1 -85 -2 -108 -20 -143 -22 -44 -55 -70 -66
-52 -4 6 -10 61 -15 123 -20 261 -100 497 -220 645 -45 55 -50 67 -50 110 0
84 14 83 105 -11z m1648 11 c-34 -38 -234 -126 -365 -162 -120 -33 -336 -71
-438 -78 -35 -2 -46 1 -48 13 -6 34 119 68 253 69 45 0 75 7 120 28 120 57
468 167 488 155 5 -3 0 -14 -10 -25z m-1750 -212 c37 -7 70 -16 74 -20 11 -10
-25 -104 -62 -161 -17 -27 -59 -75 -92 -106 -65 -60 -293 -219 -315 -219 -7 0
-34 10 -60 22 -45 22 -47 25 -41 56 5 29 3 32 -18 32 -13 0 -31 5 -39 10 -13
9 -12 12 4 25 11 8 27 15 36 15 20 0 40 19 40 38 0 8 -9 25 -20 40 -19 23 -19
27 -5 41 13 14 12 17 -12 37 -25 20 -26 24 -15 48 7 15 12 45 12 66 l0 39 71
22 c39 12 94 25 122 30 65 10 230 2 320 -15z m527 -61 c40 -14 92 -25 115 -25
89 0 386 -250 493 -414 54 -83 164 -322 209 -454 22 -66 27 -101 32 -237 8
-191 17 -214 132 -360 98 -123 133 -198 137 -297 4 -73 2 -83 -33 -157 -26
-54 -36 -87 -31 -104 3 -13 33 -59 67 -103 87 -113 92 -125 87 -209 -4 -62
-13 -88 -62 -191 -77 -157 -96 -215 -96 -286 0 -74 14 -107 95 -224 101 -145
128 -210 133 -320 4 -78 0 -110 -28 -220 -34 -137 -34 -146 1 -264 19 -63 23
-98 22 -220 0 -129 -3 -155 -27 -235 -49 -160 -151 -347 -277 -508 -70 -89
-241 -180 -391 -209 -65 -12 -68 -14 -74 -45 -9 -48 0 -73 51 -138 30 -39 45
-68 45 -88 0 -29 0 -29 -47 -22 -138 20 -231 90 -253 188 -21 92 -8 144 125
497 59 156 71 216 85 408 25 343 -34 742 -157 1052 -60 152 -83 192 -163 275
-57 60 -80 97 -163 260 -53 105 -124 228 -158 275 -93 129 -269 393 -369 554
-49 80 -109 175 -133 213 -55 86 -71 126 -64 160 3 16 7 37 9 47 2 14 -10 28
-40 48 -75 52 -83 109 -16 124 19 5 34 14 32 19 -3 10 -44 12 -108 4 -33 -4
-35 -2 -38 27 -2 25 3 37 27 57 17 14 31 28 31 31 0 3 -19 6 -43 6 -57 0 -78
17 -87 71 -5 24 -11 60 -15 80 -7 33 -5 37 29 57 34 20 36 24 36 76 0 48 3 57
30 80 l31 25 -26 7 c-14 3 -29 13 -34 22 -8 14 -11 14 -32 -1 -83 -60 -116
-78 -144 -75 -38 4 -43 30 -15 76 26 43 63 57 179 71 51 7 110 20 130 30 20
11 76 54 125 98 150 133 210 172 262 173 50 0 75 -171 40 -272 -15 -42 -15
-51 -2 -75 16 -31 60 -75 92 -91 27 -14 73 13 102 60 69 111 70 406 2 602 -24
71 -23 61 -4 80 22 22 59 20 144 -9z m-5070 -111 c105 -31 193 -104 206 -172
6 -27 10 -30 77 -42 99 -17 238 -67 451 -161 231 -102 386 -155 512 -174 131
-20 154 -19 388 10 110 14 223 25 253 25 47 0 55 -3 65 -25 13 -29 15 -29 48
-10 16 9 55 14 107 15 52 0 98 6 123 16 45 18 60 13 39 -12 -13 -16 -11 -17
26 -10 96 16 179 17 314 2 181 -20 268 -20 349 0 35 9 66 13 70 10 11 -11 -30
-77 -67 -107 -85 -70 -230 -127 -381 -150 l-82 -13 -66 -66 c-76 -76 -145
-109 -249 -117 -70 -6 -79 3 -42 43 26 28 18 59 -21 79 -48 25 -78 19 -121
-24 -32 -32 -39 -45 -39 -79 0 -27 -5 -42 -16 -46 -30 -12 -200 -6 -217 7 -9
6 -26 37 -37 67 -12 30 -29 63 -37 72 -35 39 -133 30 -133 -12 0 -11 12 -38
26 -60 34 -52 29 -73 -21 -82 -22 -4 -179 -12 -350 -18 -170 -5 -337 -14 -370
-19 -316 -50 -552 -176 -795 -427 -123 -127 -510 -608 -510 -634 0 -34 -52
-176 -140 -385 -49 -115 -98 -246 -110 -290 -24 -92 -35 -240 -22 -305 l8 -45
8 55 c16 117 48 273 81 393 97 354 297 727 530 985 44 49 85 68 85 39 0 -16
-79 -150 -190 -322 -271 -421 -387 -661 -436 -904 -13 -65 -15 -102 -8 -155
17 -146 10 -230 -34 -400 -72 -275 -60 -369 78 -590 44 -72 80 -133 80 -137 0
-20 -25 -18 -80 7 -92 41 -151 112 -239 285 -41 79 -94 174 -117 212 -96 148
-113 210 -114 397 -1 121 -16 226 -38 264 -24 41 -74 68 -150 80 l-64 11 -34
115 c-26 85 -35 135 -35 190 -1 90 15 137 81 246 60 99 80 144 80 184 0 44
-31 99 -80 143 l-42 37 3 83 c5 103 40 181 126 276 l58 65 6 85 c8 103 21 157
52 202 21 31 28 35 82 40 71 7 92 17 134 64 39 45 50 71 95 231 44 155 83 221
148 253 25 11 56 21 70 21 23 0 27 6 49 92 l24 93 46 22 c60 28 102 81 179
223 87 160 128 212 191 244 62 31 69 31 139 10z m3430 -15 c46 -23 79 -31 113
-31 61 1 71 -18 31 -59 -27 -28 -54 -38 -54 -20 0 18 -65 49 -147 71 -86 23
-105 42 -60 60 35 14 48 12 117 -21z m4060 -128 c30 -11 70 -30 88 -41 32 -19
32 -21 32 -95 0 -41 -3 -75 -6 -75 -15 0 -122 34 -146 46 -26 13 -28 12 -55
-29 -20 -29 -37 -43 -56 -45 -22 -3 -27 1 -27 17 0 29 -12 26 -38 -9 -20 -26
-25 -28 -43 -17 -17 10 -22 9 -29 -4 -5 -9 -18 -27 -29 -40 l-19 -24 -25 23
c-28 26 -30 24 -46 -35 -13 -49 -43 -72 -67 -52 -11 9 -14 28 -12 67 3 52 5
57 38 75 54 29 76 55 127 152 29 54 58 95 73 103 36 19 171 9 240 -17z m787
-37 c3 -8 -2 -23 -11 -32 -15 -15 -17 -15 -32 0 -21 21 -11 48 16 48 11 0 23
-7 27 -16z m-4549 -156 c16 -16 15 -110 -1 -132 -12 -17 -14 -17 -36 1 -28 23
-41 104 -21 128 15 18 42 19 58 3z m3191 -3 c36 -18 81 -71 81 -95 0 -11 -10
-19 -28 -23 -21 -4 -30 -15 -42 -48 -19 -53 -37 -60 -51 -19 -15 41 -28 27
-36 -39 -7 -61 -15 -69 -42 -42 l-21 21 -6 -28 c-4 -15 -9 -30 -11 -35 -8 -14
-41 12 -47 38 -4 14 -11 25 -16 25 -19 0 -21 -22 -5 -70 17 -51 13 -94 -8 -87
-7 2 -19 25 -28 52 -10 27 -21 51 -27 53 -20 6 -23 -20 -7 -68 18 -55 13 -90
-14 -90 -24 0 -39 19 -47 58 -7 34 -34 45 -34 14 0 -10 9 -43 20 -75 11 -31
20 -65 20 -76 0 -28 -34 -65 -53 -58 -18 7 -37 66 -37 117 0 19 -7 48 -15 63
-19 36 -11 55 67 169 84 123 183 226 233 243 53 19 119 19 154 0z m-3358 -85
c16 -9 19 -22 19 -84 0 -119 -7 -133 -185 -360 -34 -44 -74 -114 -110 -195
-31 -69 -70 -148 -88 -174 -56 -83 -396 -333 -515 -377 -31 -12 -113 -30 -182
-40 -69 -10 -144 -23 -168 -30 -53 -16 -117 -70 -143 -122 -23 -45 -69 -69
-169 -89 -142 -28 -280 1 -480 101 -268 134 -401 135 -505 4 -22 -28 -63 -80
-90 -115 -58 -74 -127 -124 -185 -134 -23 -4 -69 -1 -104 6 -63 12 -64 12
-100 -16 -53 -40 -64 -68 -86 -217 -22 -143 -45 -206 -88 -234 -32 -21 -89
-21 -131 0 -67 35 -149 6 -184 -67 -14 -27 -19 -61 -19 -130 0 -60 -6 -102
-15 -121 -24 -47 -92 -115 -200 -198 -158 -122 -201 -182 -224 -313 -17 -97
-5 -201 46 -415 68 -289 76 -381 43 -532 -22 -105 -74 -113 -103 -15 -11 38
-36 77 -90 142 -135 162 -208 321 -221 483 -6 69 -2 95 29 222 29 116 38 179
47 315 25 394 49 466 269 810 56 88 140 237 188 330 113 224 156 288 268 404
155 160 314 261 495 314 116 34 129 37 255 52 95 11 131 11 262 -3 l152 -16
68 28 c116 48 136 54 217 65 43 6 167 16 275 21 228 12 381 26 468 44 34 7 67
10 74 6 24 -16 22 -111 -5 -224 -14 -59 -26 -112 -26 -117 0 -11 40 -12 58 0
17 10 31 71 32 130 0 37 5 49 35 77 45 42 44 60 -2 81 -50 23 -73 42 -73 63 0
17 42 32 182 63 l47 11 40 -45 c23 -24 44 -54 47 -66 8 -31 39 -29 60 2 11 17
17 49 18 98 l1 72 60 30 c87 43 148 91 249 195 199 203 260 248 371 276 64 16
91 17 116 4z m262 -83 c18 -28 42 -105 57 -179 6 -32 22 -77 35 -102 25 -47
24 -56 -10 -56 -29 0 -61 36 -80 90 -19 54 -57 259 -50 271 8 12 32 0 48 -24z
m-683 -29 c-1 -20 -72 -120 -102 -141 -14 -11 -33 -17 -42 -14 -13 5 -9 18 25
72 23 36 51 72 63 80 25 18 56 19 56 3z m599 -64 c26 -34 49 -108 57 -190 6
-54 4 -64 -9 -64 -22 0 -64 54 -77 98 -12 46 -13 182 -1 182 5 0 19 -12 30
-26z m391 -67 c0 -48 -70 -77 -78 -33 -5 22 33 55 61 56 11 0 17 -8 17 -23z
m-1315 -97 c9 -15 -29 -72 -72 -107 -87 -69 -229 -121 -362 -130 -83 -6 -83
-6 -72 15 16 30 74 58 149 72 56 11 60 14 45 26 -17 13 -16 16 12 39 33 28 93
50 205 76 94 21 88 21 95 9z m915 -97 c19 -39 38 -75 42 -79 4 -4 33 1 63 11
51 16 57 16 80 1 30 -20 32 -50 5 -94 -22 -35 -27 -97 -9 -108 6 -3 29 -1 50
6 27 9 43 10 50 3 6 -6 29 -53 53 -105 82 -182 212 -381 349 -533 38 -42 68
-86 75 -110 6 -22 39 -87 72 -145 57 -100 68 -129 54 -143 -14 -14 -40 14
-148 157 -135 180 -239 336 -335 506 -92 163 -91 163 -84 120 14 -88 109 -239
413 -656 156 -214 286 -407 355 -526 21 -37 41 -66 43 -64 6 7 -46 103 -128
235 -99 159 -100 161 -66 161 36 0 82 -51 140 -154 26 -49 91 -156 143 -240
274 -435 367 -624 433 -880 40 -157 61 -322 62 -494 l2 -147 -32 -44 c-40 -55
-56 -108 -88 -289 -37 -211 -82 -338 -105 -301 -4 8 -6 23 -4 34 2 11 6 40 9
65 l6 45 -19 -23 c-32 -38 -61 -130 -68 -214 l-6 -79 44 -45 c40 -41 47 -44
81 -39 l36 6 30 -63 c39 -81 89 -138 146 -169 25 -13 46 -29 46 -35 0 -6 -17
-16 -39 -22 -132 -40 -237 22 -331 196 -25 46 -62 112 -83 147 l-37 65 24 47
c35 71 74 205 91 318 15 102 19 334 7 414 -6 41 -10 46 -42 53 -19 5 -92 31
-161 59 -70 27 -134 49 -142 49 -23 0 -34 20 -41 75 -4 28 -19 74 -33 103 -39
82 -100 109 -182 81 -28 -10 -36 -8 -84 24 -28 19 -91 60 -138 90 -121 79
-184 154 -203 242 -8 38 -54 65 -109 65 -30 0 -57 -10 -97 -35 -109 -70 -172
-30 -200 126 -30 168 -33 171 -170 157 -183 -19 -263 14 -373 151 -179 225
-282 450 -313 686 -19 144 -8 235 51 425 25 80 48 173 52 208 6 62 7 64 62
106 141 109 269 278 346 455 23 52 46 96 52 98 18 6 113 -76 143 -124 16 -25
34 -70 40 -99 6 -30 16 -54 22 -54 6 0 26 -11 44 -25 39 -30 59 -33 49 -7 -17
42 -17 55 5 84 l23 31 -39 31 c-123 96 -151 176 -93 257 16 23 28 29 48 27 21
-2 32 -16 61 -75z m2721 7 c16 -9 19 -22 19 -76 0 -49 -4 -66 -16 -71 -8 -3
-20 -1 -26 5 -17 17 -28 99 -18 127 11 28 14 29 41 15z m-2325 -130 c31 -61
35 -105 10 -105 -29 0 -56 44 -63 104 -5 48 -4 53 12 49 11 -1 29 -23 41 -48z
m-2272 -75 c0 -5 -16 -19 -35 -30 -31 -18 -49 -20 -217 -17 -201 3 -250 -5
-281 -44 l-21 -26 -133 11 c-146 13 -315 4 -455 -25 -244 -49 -485 -176 -642
-338 -30 -31 -58 -56 -62 -56 -31 0 49 129 127 206 142 138 386 235 700 278
290 39 1022 69 1019 41z m2282 -152 c50 -66 107 -125 160 -163 39 -29 53 -48
63 -81 20 -68 46 -114 142 -250 106 -151 163 -269 130 -269 -26 0 -273 319
-378 487 -60 98 -163 289 -163 305 0 18 19 6 46 -29z m4611 -202 c7 -34 22
-83 33 -108 24 -55 14 -75 -24 -49 -50 32 -75 115 -56 185 6 24 16 41 23 38 6
-2 17 -32 24 -66z m623 -67 c10 -20 15 -60 15 -129 0 -133 -8 -145 -117 -180
-149 -48 -343 -45 -448 8 -42 20 -45 25 -44 59 1 34 -1 37 -42 48 -58 17 -84
43 -84 85 0 19 4 35 9 35 5 0 35 -12 67 -27 155 -71 389 -23 539 111 44 39 52
43 70 32 11 -7 27 -26 35 -42z m-4659 -553 c30 -30 39 -70 17 -72 -40 -4 -74
19 -89 59 -19 50 27 58 72 13z m239 -373 c56 -76 60 -160 6 -109 -28 26 -89
148 -81 161 10 16 43 -7 75 -52z m229 -404 c115 -130 222 -342 284 -561 112
-392 100 -781 -40 -1243 -43 -143 -135 -375 -148 -375 -17 0 -17 116 1 195 9
41 45 158 81 260 86 249 111 355 119 509 17 343 -85 721 -307 1138 -32 61 -59
114 -59 117 0 19 34 -1 69 -40z m-4850 -1503 c78 -182 -59 -296 -397 -332
-130 -14 -137 -11 -153 60 -7 30 -5 59 6 107 8 36 15 78 15 95 0 16 5 29 11
29 6 0 57 -9 112 -21 179 -37 296 -11 342 75 11 20 25 36 31 36 6 0 21 -22 33
-49z"/>
<path d="M4600 8123 c0 -5 16 -39 35 -77 26 -50 35 -81 35 -117 0 -30 4 -49
11 -49 8 0 9 16 5 53 -12 86 -11 100 0 104 21 7 73 -47 80 -83 6 -33 24 -48
24 -20 0 7 7 19 15 26 11 9 19 7 40 -14 27 -27 28 -36 25 -175 -2 -76 0 -84
14 -72 11 10 16 37 18 107 2 52 7 95 13 97 6 1 19 -16 30 -38 16 -31 21 -67
25 -165 4 -88 8 -121 15 -110 6 8 9 49 7 90 -2 41 -4 94 -5 117 -3 57 13 58
42 3 l23 -45 -6 40 c-6 46 -37 76 -179 177 -72 52 -249 158 -263 158 -2 0 -4
-3 -4 -7z"/>
<path d="M211 7947 c-18 -23 -42 -100 -33 -109 14 -14 30 13 40 70 10 57 10
58 -7 39z"/>
<path d="M4610 5970 c0 -5 5 -10 11 -10 5 0 7 5 4 10 -3 6 -8 10 -11 10 -2 0
-4 -4 -4 -10z"/>
<path d="M5665 4524 l-50 -24 40 6 c68 9 116 24 110 34 -10 16 -47 10 -100
-16z"/>
<path d="M8315 1181 c-16 -52 -35 -344 -21 -330 8 7 35 181 42 267 4 55 3 82
-4 82 -6 0 -13 -8 -17 -19z"/>
</g>
</svg>
